<?xml version="1.0" encoding="UTF-8"?>
<svg version="1.1" xmlns="http://www.w3.org/2000/svg" width="206" height="243">
<path d="M0 0 C67.98 0 135.96 0 206 0 C206 80.19 206 160.38 206 243 C138.02 243 70.04 243 0 243 C0 162.81 0 82.62 0 0 Z " fill="#ADD8E9" transform="translate(0,0)"/>
<path d="M0 0 C0.66 0.33 1.32 0.66 2 1 C2.99 0.67 3.98 0.34 5 0 C9.39074051 -0.48786006 11.26843307 -0.5689965 14.8125 2.1875 C22.94840562 12.64795009 22.0882526 29.25540705 22.31640625 41.91796875 C22.33718735 42.90122635 22.35796844 43.88448395 22.37937927 44.89753723 C22.44401141 47.99413041 22.50335195 51.09079772 22.5625 54.1875 C22.60576764 56.30534577 22.64938434 58.42318443 22.69335938 60.54101562 C22.79960226 65.69393726 22.90110435 70.84693234 23 76 C24.60681641 75.98259766 24.60681641 75.98259766 26.24609375 75.96484375 C27.64322743 75.95546701 29.04036299 75.94636669 30.4375 75.9375 C31.14455078 75.92912109 31.85160156 75.92074219 32.58007812 75.91210938 C34.38693559 75.90346412 36.19387603 75.94779989 38 76 C38.33 76.33 38.66 76.66 39 77 C41.07669018 77.07675652 43.15375764 77.14764854 45.23144531 77.18945312 C53.29016942 77.37402678 60.53454464 78.13836358 68.25 80.5 C79.31944413 83.85843922 90.50498488 83.92473414 102 84 C102 86.31 102 88.62 102 91 C95.378389 91.85134999 88.9225989 92.15355606 82.25 92.125 C81.33089844 92.12886719 80.41179687 92.13273437 79.46484375 92.13671875 C78.57410156 92.13542969 77.68335938 92.13414063 76.765625 92.1328125 C75.96930664 92.13168457 75.17298828 92.13055664 74.35253906 92.12939453 C71.8249249 91.99037051 69.46789715 91.55103602 67 91 C67.00523682 91.64549805 67.01047363 92.29099609 67.01586914 92.95605469 C67.03668657 95.88735985 67.04967534 98.81864943 67.0625 101.75 C67.07087891 102.76578125 67.07925781 103.7815625 67.08789062 104.828125 C67.09111328 105.8078125 67.09433594 106.7875 67.09765625 107.796875 C67.10289307 108.69760742 67.10812988 109.59833984 67.11352539 110.52636719 C67.00701665 112.84711239 66.6071093 114.76917893 66 117 C65.82245938 119.2685746 65.68108205 121.54008065 65.5625 123.8125 C65.26692405 128.9662926 64.76074857 134.01389668 64 139.125 C61.44466564 157.39373368 59.27939862 179.00270725 64 197 C68.46513092 196.2331623 70.23235432 194.15429784 73.06640625 190.765625 C79.33290134 181.80263809 83.6213882 171.34788217 87 161 C87.42480508 159.73404702 87.8506586 158.46844555 88.27734375 157.203125 C89.53153549 153.47311444 90.76690249 149.73704041 92 146 C92.66598705 143.99977359 93.33241471 141.99969356 94 140 C95.65 139.67 97.3 139.34 99 139 C100.64415457 145.08781557 98.70600916 150.09751297 97 156 C96.79375 156.72058594 96.5875 157.44117188 96.375 158.18359375 C91.37883349 174.20255263 84.58749037 193.56761235 70.58984375 203.75390625 C65.6109901 206.14946328 60.0308517 204.99520504 54.90625 203.3125 C49.05122673 200.43634822 46.29550946 195.40071232 44.0625 189.5390625 C41.41344028 181.26075087 40.84351213 173.11967115 40.83203125 164.48828125 C40.82703865 163.15315742 40.82703865 163.15315742 40.82194519 161.7910614 C40.81690878 159.91613273 40.81453584 158.04119519 40.81469727 156.16625977 C40.81251956 153.33789823 40.79435262 150.50993293 40.77539062 147.68164062 C40.74515235 137.90477681 41.0514039 128.61157401 43 119 C43.17635986 118.06994141 43.35271973 117.13988281 43.53442383 116.18164062 C43.99409494 113.78084134 44.49082328 111.39074382 45 109 C45.165 108.19433594 45.33 107.38867188 45.5 106.55859375 C46.35626599 102.49801989 47.43847186 98.85176941 49 95 C49.37593066 93.0075675 49.71979545 91.0081326 50 89 C49.10861328 89.18175781 49.10861328 89.18175781 48.19921875 89.3671875 C42.62860632 90.49343885 37.05465403 91.52168914 31.4453125 92.4375 C28.64766025 92.980069 28.64766025 92.980069 25 95 C24.67 114.14 24.34 133.28 24 153 C23.34 152.01 22.68 151.02 22 150 C20.68 154.29 19.36 158.58 18 163 C17.34 163 16.68 163 16 163 C16.33 163.99 16.66 164.98 17 166 C15.68 166.33 14.36 166.66 13 167 C13 167.66 13 168.32 13 169 C9.8125 169 9.8125 169 6 168 C-6.35435221 155.16555638 -4.41942262 127.66523256 -4.1875 111.3125 C-4.17239591 109.42383904 -4.15871783 107.53516611 -4.14648438 105.64648438 C-4.11400094 101.09735109 -4.06254982 96.54881508 -4 92 C-4.66 92 -5.32 92 -6 92 C-6 92.66 -6 93.32 -6 94 C-11.28 94.66 -16.56 95.32 -22 96 C-21.98839844 97.14855469 -21.97679688 98.29710938 -21.96484375 99.48046875 C-21.82616414 118.35109272 -22.73240862 135.43495257 -33 152 C-36 154 -36 154 -38.0625 153.9375 C-40 153 -40 153 -41.25 150.9375 C-43.03037545 143.96436281 -41.68374743 137.91261526 -40.21044922 130.98950195 C-38.99682274 125.22867965 -38.20596312 119.45118102 -37.47265625 113.609375 C-36.78813247 108.38210251 -35.90889525 103.19230585 -35 98 C-35.99 98.495 -35.99 98.495 -37 99 C-38.54023996 99.06950541 -40.08334988 99.08452357 -41.625 99.0625 C-42.44226563 99.05347656 -43.25953125 99.04445313 -44.1015625 99.03515625 C-44.72804688 99.02355469 -45.35453125 99.01195313 -46 99 C-46 97.68 -46 96.36 -46 95 C-44.42578125 93.65625 -44.42578125 93.65625 -42.3125 92.5 C-35.33928123 88.73684221 -35.33928123 88.73684221 -31.55859375 82.0859375 C-31.16528672 80.52042127 -30.7926493 78.94961121 -30.4375 77.375 C-30.23334473 76.54049316 -30.02918945 75.70598633 -29.81884766 74.84619141 C-28.24521968 68.33492297 -26.78686307 61.78827673 -25.43139648 55.22802734 C-24.3277855 50.00259192 -22.76894003 45.03602193 -21 40 C-20.55769043 38.71536865 -20.55769043 38.71536865 -20.10644531 37.40478516 C-9.2975087 6.19833913 -9.2975087 6.19833913 0 0 Z " fill="#3784C6" transform="translate(74,24)"/>
<path d="M0 0 C0.33 0 0.66 0 1 0 C1.18081734 20.68550415 0.65615519 41.32762145 0 62 C-3.68279971 62.64039056 -7.1345371 63.11917368 -10.875 63.0625 C-11.65617187 63.05347656 -12.43734375 63.04445312 -13.2421875 63.03515625 C-13.82226562 63.02355469 -14.40234375 63.01195312 -15 63 C-14.58662711 59.03162028 -14.03811986 56.09374067 -12.51953125 52.359375 C-10.72389533 47.69751386 -10.34711511 43.20125757 -10 38.25 C-7.3289986 7.3289986 -7.3289986 7.3289986 0 0 Z " fill="#AFDDDB" transform="translate(70,42)"/>
<path d="M0 0 C4.62 0 9.24 0 14 0 C13.29875 0.680625 12.5975 1.36125 11.875 2.0625 C9.77255579 4.17695817 7.73527489 6.33745761 5.75 8.5625 C5.24984375 9.12066406 4.7496875 9.67882813 4.234375 10.25390625 C1.28884505 14.42052614 1.84915546 19.483575 1.84609985 24.38613892 C1.8417176 25.24004695 1.83733535 26.09395499 1.8328203 26.97373903 C1.81944714 29.84007957 1.81325674 32.70638937 1.80712891 35.57275391 C1.79922674 37.62605935 1.79095772 39.67936341 1.78234863 41.73266602 C1.75614074 48.48061804 1.74082174 55.22857623 1.7265625 61.9765625 C1.72120223 64.3004901 1.71582472 66.62441766 1.71043015 68.94834518 C1.68880282 78.61629257 1.67006667 88.2842383 1.65880775 97.95220375 C1.64257206 111.8020903 1.60940148 125.65169615 1.55240691 139.50147688 C1.51368866 149.24260989 1.49417278 158.98366788 1.48888719 168.72487581 C1.48523623 174.54131705 1.47324163 180.35745882 1.44078445 186.17381668 C1.41067116 191.64861397 1.40440387 197.12293109 1.41616821 202.59779358 C1.41638867 204.60286119 1.40810643 206.6079513 1.39051437 208.61294174 C0.88756791 223.18472485 0.88756791 223.18472485 7 236 C9.54085395 238.05235244 12.05728365 239.59592063 15 241 C16.32 241.66 17.64 242.32 19 243 C12.73 243 6.46 243 0 243 C0 162.81 0 82.62 0 0 Z " fill="#E6FFEB" transform="translate(0,0)"/>
<path d="M0 0 C4.29 0 8.58 0 13 0 C13 80.19 13 160.38 13 243 C7.39 243 1.78 243 -4 243 C-2.04297985 241.6953199 -0.06417543 240.42257633 1.9375 239.1875 C6.55848412 235.88679705 9.29638666 232.40643964 11 227 C11.19104325 224.08952973 11.27856777 221.2757493 11.26742554 218.36625671 C11.27195665 217.49783246 11.27648776 216.62940821 11.28115618 215.73466808 C11.29381453 212.8252552 11.29217888 209.91602917 11.29052734 207.0065918 C11.29651171 204.9203365 11.30331704 202.83408342 11.31088257 200.74783325 C11.32855945 195.08040573 11.33323867 189.41303858 11.33451414 183.74558616 C11.33641319 179.01401786 11.34377082 174.28246364 11.35085833 169.55090076 C11.36714643 158.38687255 11.37202691 147.22287661 11.37060547 136.05883789 C11.36940402 124.54413173 11.3905057 113.029613 11.4220928 101.51495427 C11.44824853 91.62775245 11.45897305 81.74061188 11.45769465 71.85337573 C11.4571848 65.94876539 11.46288098 60.04432159 11.48405075 54.13974571 C11.50342104 48.58535978 11.50356566 43.03129945 11.48901749 37.47690201 C11.48692678 35.44036826 11.49164582 33.40381421 11.5037384 31.36731529 C11.51919979 28.58272653 11.50987676 25.79925923 11.49447632 23.01469421 C11.50476344 22.21263556 11.51505057 21.4105769 11.52564943 20.58421344 C11.45704979 14.95452633 10.07111979 10.73830528 7 6 C5.20157171 4.14265696 5.20157171 4.14265696 3.25 3.0625 C2.1775 2.381875 1.105 1.70125 0 1 C0 0.67 0 0.34 0 0 Z " fill="#C9DCFF" transform="translate(193,0)"/>
<path d="M0 0 C1.65 0.33 3.3 0.66 5 1 C5 1.66 5 2.32 5 3 C6.32 2.67 7.64 2.34 9 2 C9 2.66 9 3.32 9 4 C8.34 4 7.68 4 7 4 C7 5.65 7 7.3 7 9 C5.68 8.34 4.36 7.68 3 7 C3.33773437 7.48984375 3.67546875 7.9796875 4.0234375 8.484375 C5.42458167 12.09372237 4.95852024 15.47455089 4.625 19.25 C4.56828125 19.99507812 4.5115625 20.74015625 4.453125 21.5078125 C4.31223742 23.33935108 4.15748116 25.16981352 4 27 C3.34 27 2.68 27 2 27 C1.67 27.99 1.34 28.98 1 30 C1.66 30.33 2.32 30.66 3 31 C2.34 31.66 1.68 32.32 1 33 C0.30251417 34.31747324 -0.36959957 35.64914193 -1 37 C-1 29 -1 21 -1 13 C-1.020625 11.72125 -1.04125 10.4425 -1.0625 9.125 C-1.06834046 5.95947237 -0.77139314 3.08557256 0 0 Z " fill="#458FC9" transform="translate(74,26)"/>
<path d="M0 0 C2.75245998 1.37622999 2.93727784 2.94265672 4.125 5.75 C6.72742268 11.15562574 9.67820378 13.46077318 15 16 C16.32 16.66 17.64 17.32 19 18 C12.73 18 6.46 18 0 18 C0 12.06 0 6.12 0 0 Z " fill="#F9FEFB" transform="translate(0,225)"/>
<path d="M0 0 C0.33 0 0.66 0 1 0 C1 5.94 1 11.88 1 18 C-4.61 18 -10.22 18 -16 18 C-14.04297985 16.6953199 -12.06417543 15.42257633 -10.0625 14.1875 C-4.64841601 10.32029715 -2.36524501 6.03137477 0 0 Z " fill="#FCFDFE" transform="translate(205,225)"/>
<path d="M0 0 C4.62 0 9.24 0 14 0 C13.29875 0.680625 12.5975 1.36125 11.875 2.0625 C9.77255579 4.17695817 7.73527489 6.33745761 5.75 8.5625 C5.24984375 9.12066406 4.7496875 9.67882813 4.234375 10.25390625 C2.88407587 12.16398128 2.4199406 13.71532318 2 16 C1.34 16 0.68 16 0 16 C0 10.72 0 5.44 0 0 Z " fill="#F5FEF8" transform="translate(0,0)"/>
<path d="M0 0 C4.29 0 8.58 0 13 0 C13 5.61 13 11.22 13 17 C11.42307312 14.63460967 10.415079 12.68936925 9.3125 10.125 C7.10071048 5.55845357 4.23110698 3.68512558 0 1 C0 0.67 0 0.34 0 0 Z " fill="#FCFDFE" transform="translate(193,0)"/>
<path d="M0 0 C0.66 0.33 1.32 0.66 2 1 C1.01 4.63 0.02 8.26 -1 12 C-1.99 12 -2.98 12 -4 12 C-3.45660208 7.43545749 -2.20536179 4.0271824 0 0 Z " fill="#549ACB" transform="translate(69,38)"/>
<path d="M0 0 C3.00617269 3.00617269 2.59585316 5.82381598 3 10 C2.67 9.01 2.34 8.02 2 7 C1.34 7 0.68 7 0 7 C-0.33 8.65 -0.66 10.3 -1 12 C-2.09898702 8.70303895 -1.87124444 7.59505097 -1.0625 4.3125 C-0.86785156 3.50425781 -0.67320313 2.69601563 -0.47265625 1.86328125 C-0.31667969 1.24839844 -0.16070312 0.63351563 0 0 Z " fill="#93C4DA" transform="translate(95,172)"/>
<path d="M0 0 C1.65 0.33 3.3 0.66 5 1 C5 2.32 5 3.64 5 5 C4.34 5 3.68 5 3 5 C3 4.01 3 3.02 3 2 C1.35 2.66 -0.3 3.32 -2 4 C-1.34 2.68 -0.68 1.36 0 0 Z " fill="#4B91D0" transform="translate(169,163)"/>
<path d="M0 0 C0.99 0 1.98 0 3 0 C2.34 2.97 1.68 5.94 1 9 C0.67 9 0.34 9 0 9 C0 6.03 0 3.06 0 0 Z " fill="#81ABD1" transform="translate(141,115)"/>
<path d="M0 0 C0.93065133 2.60582371 1.14917407 3.64198224 0.0625 6.25 C-0.4634375 7.11625 -0.4634375 7.11625 -1 8 C-1.66 7.67 -2.32 7.34 -3 7 C-2.625 4.0625 -2.625 4.0625 -2 1 C-1.34 0.67 -0.68 0.34 0 0 Z " fill="#418CC8" transform="translate(66,48)"/>
</svg>
